<svg id="drawing" xmlns="http://www.w3.org/2000/svg" version="1.1" xmlns:xlink="http://www.w3.org/1999/xlink" width="3080.449951171875" height="3418.89990234375" viewBox="-2428.449951171875 -2912.39990234375 3080.449951171875 3418.89990234375"><defs id="SvgjsDefs1001"></defs><g id="SvgjsG1007" transform="translate(640 494.5)"><path id="SvgjsPath1008" d="M-3068.449951171875 -3406.89990234375H12V12H-3068.449951171875V-3406.89990234375Z " fill="#ffffff" opacity="1"></path><g id="SvgjsG1009"><path id="SvgjsPath1019" d="M-2998.5 -2843.5C-2998.5 -3099.5 -2933.5 -3355.5 -2868.5 -3355.5 " fill="none" stroke="#0000cc" stroke-width="1"></path><path id="SvgjsPath1020" d="M-2998.5 -2897.5C-2998.5 -3063.5 -2933.5 -3229.5 -2868.5 -3229.5 " fill="none" stroke="#0000cc" stroke-width="1"></path><path id="SvgjsPath1021" d="M-2998.5 -2998.5C-2998.5 -2908 -2933.5 -2817.5 -2868.5 -2817.5 " fill="none" stroke="#0000cc" stroke-width="1"></path><path id="SvgjsPath1031" d="M-2732.434326171875 -3341.300048828125C-2732.434326171875 -3363.800048828125 -2727.434326171875 -3386.300048828125 -2722.434326171875 -3386.300048828125 " fill="none" stroke="#6666ff" stroke-width="1"></path><path id="SvgjsPath1032" d="M-2732.434326171875 -3354.800048828125C-2732.434326171875 -3354.800048828125 -2727.434326171875 -3354.800048828125 -2722.434326171875 -3354.800048828125 " fill="none" stroke="#6666ff" stroke-width="1"></path><path id="SvgjsPath1033" d="M-2732.434326171875 -3354.800048828125C-2732.434326171875 -3332.800048828125 -2727.434326171875 -3310.800048828125 -2722.434326171875 -3310.800048828125 " fill="none" stroke="#6666ff" stroke-width="1"></path><path id="SvgjsPath1048" d="M-2681.33447265625 -3350.300048828125C-2681.33447265625 -3357.800048828125 -2676.33447265625 -3365.300048828125 -2671.33447265625 -3365.300048828125 " fill="none" stroke="#6666ff" stroke-width="1"></path><path id="SvgjsPath1049" d="M-2681.33447265625 -3354.800048828125C-2681.33447265625 -3347.300048828125 -2676.33447265625 -3339.800048828125 -2671.33447265625 -3339.800048828125 " fill="none" stroke="#6666ff" stroke-width="1"></path><path id="SvgjsPath1064" d="M-2612.034423828125 -3344.300048828125C-2612.034423828125 -3344.300048828125 -2607.034423828125 -3344.300048828125 -2602.034423828125 -3344.300048828125 " fill="none" stroke="#6666ff" stroke-width="1"></path><path id="SvgjsPath1084" d="M-2746.0625 -3201.800048828125C-2746.0625 -3246.800048828125 -2741.0625 -3291.800048828125 -2736.0625 -3291.800048828125 " fill="none" stroke="#6666ff" stroke-width="1"></path><path id="SvgjsPath1085" d="M-2746.0625 -3219.800048828125C-2746.0625 -3234.800048828125 -2741.0625 -3249.800048828125 -2736.0625 -3249.800048828125 " fill="none" stroke="#6666ff" stroke-width="1"></path><path id="SvgjsPath1086" d="M-2746.0625 -3228.800048828125C-2746.0625 -3198.800048828125 -2741.0625 -3168.800048828125 -2736.0625 -3168.800048828125 " fill="none" stroke="#6666ff" stroke-width="1"></path><path id="SvgjsPath1096" d="M-2694.962646484375 -3287.300048828125C-2694.962646484375 -3294.800048828125 -2689.962646484375 -3302.300048828125 -2684.962646484375 -3302.300048828125 " fill="none" stroke="#6666ff" stroke-width="1"></path><path id="SvgjsPath1097" d="M-2694.962646484375 -3291.800048828125C-2694.962646484375 -3284.300048828125 -2689.962646484375 -3276.800048828125 -2684.962646484375 -3276.800048828125 " fill="none" stroke="#6666ff" stroke-width="1"></path><path id="SvgjsPath1117" d="M-2694.962646484375 -3245.300048828125C-2694.962646484375 -3252.800048828125 -2689.962646484375 -3260.300048828125 -2684.962646484375 -3260.300048828125 " fill="none" stroke="#6666ff" stroke-width="1"></path><path id="SvgjsPath1118" d="M-2694.962646484375 -3249.800048828125C-2694.962646484375 -3242.300048828125 -2689.962646484375 -3234.800048828125 -2684.962646484375 -3234.800048828125 " fill="none" stroke="#6666ff" stroke-width="1"></path><path id="SvgjsPath1138" d="M-2694.962646484375 -3173.300048828125C-2694.962646484375 -3195.800048828125 -2689.962646484375 -3218.300048828125 -2684.962646484375 -3218.300048828125 " fill="none" stroke="#6666ff" stroke-width="1"></path><path id="SvgjsPath1139" d="M-2694.962646484375 -3182.300048828125C-2694.962646484375 -3189.800048828125 -2689.962646484375 -3197.300048828125 -2684.962646484375 -3197.300048828125 " fill="none" stroke="#6666ff" stroke-width="1"></path><path id="SvgjsPath1140" d="M-2694.962646484375 -3186.800048828125C-2694.962646484375 -3179.300048828125 -2689.962646484375 -3171.800048828125 -2684.962646484375 -3171.800048828125 " fill="none" stroke="#6666ff" stroke-width="1"></path><path id="SvgjsPath1141" d="M-2694.962646484375 -3186.800048828125C-2694.962646484375 -3164.800048828125 -2689.962646484375 -3142.800048828125 -2684.962646484375 -3142.800048828125 " fill="none" stroke="#6666ff" stroke-width="1"></path><path id="SvgjsPath1171" d="M-2749.846923828125 -2759.300048828125C-2749.846923828125 -2946.800048828125 -2744.846923828125 -3134.300048828125 -2739.846923828125 -3134.300048828125 " fill="none" stroke="#6666ff" stroke-width="1"></path><path id="SvgjsPath1172" d="M-2749.846923828125 -2871.800048828125C-2749.846923828125 -2871.800048828125 -2744.846923828125 -2871.800048828125 -2739.846923828125 -2871.800048828125 " fill="none" stroke="#6666ff" stroke-width="1"></path><path id="SvgjsPath1173" d="M-2749.846923828125 -2871.800048828125C-2749.846923828125 -2684.800048828125 -2744.846923828125 -2497.800048828125 -2739.846923828125 -2497.800048828125 " fill="none" stroke="#6666ff" stroke-width="1"></path><path id="SvgjsPath1188" d="M-2662.346923828125 -2768.300048828125C-2662.346923828125 -2940.800048828125 -2657.346923828125 -3113.300048828125 -2652.346923828125 -3113.300048828125 " fill="none" stroke="#6666ff" stroke-width="1"></path><path id="SvgjsPath1189" d="M-2662.346923828125 -2808.800048828125C-2662.346923828125 -2913.800048828125 -2657.346923828125 -3018.800048828125 -2652.346923828125 -3018.800048828125 " fill="none" stroke="#6666ff" stroke-width="1"></path><path id="SvgjsPath1190" d="M-2662.346923828125 -2871.800048828125C-2662.346923828125 -2856.800048828125 -2657.346923828125 -2841.800048828125 -2652.346923828125 -2841.800048828125 " fill="none" stroke="#6666ff" stroke-width="1"></path><path id="SvgjsPath1191" d="M-2662.346923828125 -2871.800048828125C-2662.346923828125 -2744.300048828125 -2657.346923828125 -2616.800048828125 -2652.346923828125 -2616.800048828125 " fill="none" stroke="#6666ff" stroke-width="1"></path><path id="SvgjsPath1206" d="M-2489.43603515625 -2987.300048828125C-2489.43603515625 -3039.800048828125 -2484.43603515625 -3092.300048828125 -2479.43603515625 -3092.300048828125 " fill="none" stroke="#6666ff" stroke-width="1"></path><path id="SvgjsPath1207" d="M-2489.43603515625 -3014.300048828125C-2489.43603515625 -3021.800048828125 -2484.43603515625 -3029.300048828125 -2479.43603515625 -3029.300048828125 " fill="none" stroke="#6666ff" stroke-width="1"></path><path id="SvgjsPath1208" d="M-2489.43603515625 -3018.800048828125C-2489.43603515625 -2981.800048828125 -2484.43603515625 -2944.800048828125 -2479.43603515625 -2944.800048828125 " fill="none" stroke="#6666ff" stroke-width="1"></path><path id="SvgjsPath1209" d="M-2489.43603515625 -3018.800048828125C-2489.43603515625 -2966.800048828125 -2484.43603515625 -2914.800048828125 -2479.43603515625 -2914.800048828125 " fill="none" stroke="#6666ff" stroke-width="1"></path><path id="SvgjsPath1224" d="M-2420.135986328125 -3011.300048828125C-2420.135986328125 -3041.300048828125 -2415.135986328125 -3071.300048828125 -2410.135986328125 -3071.300048828125 " fill="none" stroke="#6666ff" stroke-width="1"></path><path id="SvgjsPath1225" d="M-2420.135986328125 -3020.300048828125C-2420.135986328125 -3035.300048828125 -2415.135986328125 -3050.300048828125 -2410.135986328125 -3050.300048828125 " fill="none" stroke="#6666ff" stroke-width="1"></path><path id="SvgjsPath1226" d="M-2420.135986328125 -3029.300048828125C-2420.135986328125 -3029.300048828125 -2415.135986328125 -3029.300048828125 -2410.135986328125 -3029.300048828125 " fill="none" stroke="#6666ff" stroke-width="1"></path><path id="SvgjsPath1227" d="M-2420.135986328125 -3029.300048828125C-2420.135986328125 -3014.800048828125 -2415.135986328125 -3000.300048828125 -2410.135986328125 -3000.300048828125 " fill="none" stroke="#6666ff" stroke-width="1"></path><path id="SvgjsPath1228" d="M-2420.135986328125 -3029.300048828125C-2420.135986328125 -2999.300048828125 -2415.135986328125 -2969.300048828125 -2410.135986328125 -2969.300048828125 " fill="none" stroke="#6666ff" stroke-width="1"></path><path id="SvgjsPath1273" d="M-2482.21728515625 -2819.300048828125C-2482.21728515625 -2871.800048828125 -2477.21728515625 -2924.300048828125 -2472.21728515625 -2924.300048828125 " fill="none" stroke="#6666ff" stroke-width="1"></path><path id="SvgjsPath1274" d="M-2482.21728515625 -2837.300048828125C-2482.21728515625 -2859.800048828125 -2477.21728515625 -2882.300048828125 -2472.21728515625 -2882.300048828125 " fill="none" stroke="#6666ff" stroke-width="1"></path><path id="SvgjsPath1275" d="M-2482.21728515625 -2850.800048828125C-2482.21728515625 -2843.300048828125 -2477.21728515625 -2835.800048828125 -2472.21728515625 -2835.800048828125 " fill="none" stroke="#6666ff" stroke-width="1"></path><path id="SvgjsPath1276" d="M-2482.21728515625 -2850.800048828125C-2482.21728515625 -2828.800048828125 -2477.21728515625 -2806.800048828125 -2472.21728515625 -2806.800048828125 " fill="none" stroke="#6666ff" stroke-width="1"></path><path id="SvgjsPath1277" d="M-2482.21728515625 -2850.800048828125C-2482.21728515625 -2806.300048828125 -2477.21728515625 -2761.800048828125 -2472.21728515625 -2761.800048828125 " fill="none" stroke="#6666ff" stroke-width="1"></path><path id="SvgjsPath1292" d="M-2394.71728515625 -2873.300048828125C-2394.71728515625 -2888.300048828125 -2389.71728515625 -2903.300048828125 -2384.71728515625 -2903.300048828125 " fill="none" stroke="#6666ff" stroke-width="1"></path><path id="SvgjsPath1293" d="M-2394.71728515625 -2882.300048828125C-2394.71728515625 -2882.300048828125 -2389.71728515625 -2882.300048828125 -2384.71728515625 -2882.300048828125 " fill="none" stroke="#6666ff" stroke-width="1"></path><path id="SvgjsPath1294" d="M-2394.71728515625 -2882.300048828125C-2394.71728515625 -2867.300048828125 -2389.71728515625 -2852.300048828125 -2384.71728515625 -2852.300048828125 " fill="none" stroke="#6666ff" stroke-width="1"></path><path id="SvgjsPath1304" d="M-2227.82177734375 -2903.300048828125C-2227.82177734375 -2903.300048828125 -2222.82177734375 -2903.300048828125 -2217.82177734375 -2903.300048828125 " fill="none" stroke="#6666ff" stroke-width="1"></path><path id="SvgjsPath1319" d="M-2242.543701171875 -2882.300048828125C-2242.543701171875 -2882.300048828125 -2237.543701171875 -2882.300048828125 -2232.543701171875 -2882.300048828125 " fill="none" stroke="#6666ff" stroke-width="1"></path><path id="SvgjsPath1334" d="M-2234.603271484375 -2861.300048828125C-2234.603271484375 -2861.300048828125 -2229.603271484375 -2861.300048828125 -2224.603271484375 -2861.300048828125 " fill="none" stroke="#6666ff" stroke-width="1"></path><path id="SvgjsPath1349" d="M-2412.917236328125 -2840.300048828125C-2412.917236328125 -2840.300048828125 -2407.917236328125 -2840.300048828125 -2402.917236328125 -2840.300048828125 " fill="none" stroke="#6666ff" stroke-width="1"></path><path id="SvgjsPath1369" d="M-2431.1171875 -2783.300048828125C-2431.1171875 -2790.800048828125 -2426.1171875 -2798.300048828125 -2421.1171875 -2798.300048828125 " fill="none" stroke="#6666ff" stroke-width="1"></path><path id="SvgjsPath1370" d="M-2431.1171875 -2787.800048828125C-2431.1171875 -2780.300048828125 -2426.1171875 -2772.800048828125 -2421.1171875 -2772.800048828125 " fill="none" stroke="#6666ff" stroke-width="1"></path><path id="SvgjsPath1390" d="M-2545.65478515625 -2666.300048828125C-2545.65478515625 -2711.300048828125 -2540.65478515625 -2756.300048828125 -2535.65478515625 -2756.300048828125 " fill="none" stroke="#6666ff" stroke-width="1"></path><path id="SvgjsPath1391" d="M-2545.65478515625 -2688.800048828125C-2545.65478515625 -2696.300048828125 -2540.65478515625 -2703.800048828125 -2535.65478515625 -2703.800048828125 " fill="none" stroke="#6666ff" stroke-width="1"></path><path id="SvgjsPath1392" d="M-2545.65478515625 -2693.300048828125C-2545.65478515625 -2663.800048828125 -2540.65478515625 -2634.300048828125 -2535.65478515625 -2634.300048828125 " fill="none" stroke="#6666ff" stroke-width="1"></path><path id="SvgjsPath1393" d="M-2545.65478515625 -2693.300048828125C-2545.65478515625 -2648.800048828125 -2540.65478515625 -2604.300048828125 -2535.65478515625 -2604.300048828125 " fill="none" stroke="#6666ff" stroke-width="1"></path><path id="SvgjsPath1408" d="M-2494.5546875 -2694.800048828125C-2494.5546875 -2709.800048828125 -2489.5546875 -2724.800048828125 -2484.5546875 -2724.800048828125 " fill="none" stroke="#6666ff" stroke-width="1"></path><path id="SvgjsPath1409" d="M-2494.5546875 -2703.800048828125C-2494.5546875 -2696.300048828125 -2489.5546875 -2688.800048828125 -2484.5546875 -2688.800048828125 " fill="none" stroke="#6666ff" stroke-width="1"></path><path id="SvgjsPath1410" d="M-2494.5546875 -2703.800048828125C-2494.5546875 -2681.800048828125 -2489.5546875 -2659.800048828125 -2484.5546875 -2659.800048828125 " fill="none" stroke="#6666ff" stroke-width="1"></path><path id="SvgjsPath1420" d="M-2369.06884765625 -2720.300048828125C-2369.06884765625 -2727.800048828125 -2364.06884765625 -2735.300048828125 -2359.06884765625 -2735.300048828125 " fill="none" stroke="#6666ff" stroke-width="1"></path><path id="SvgjsPath1421" d="M-2369.06884765625 -2724.800048828125C-2369.06884765625 -2717.300048828125 -2364.06884765625 -2709.800048828125 -2359.06884765625 -2709.800048828125 " fill="none" stroke="#6666ff" stroke-width="1"></path><path id="SvgjsPath1441" d="M-2352.0390625 -2693.300048828125C-2352.0390625 -2693.300048828125 -2347.0390625 -2693.300048828125 -2342.0390625 -2693.300048828125 " fill="none" stroke="#6666ff" stroke-width="1"></path><path id="SvgjsPath1471" d="M-2680.546875 -2609.300048828125C-2680.546875 -2609.300048828125 -2675.546875 -2609.300048828125 -2670.546875 -2609.300048828125 " fill="none" stroke="#6666ff" stroke-width="1"></path></g><g id="SvgjsG1010"><g id="SvgjsG1011" transform="translate(-3058.449996948242 -3018.8999938964844)"><path id="SvgjsPath1012" d="M0 7A7 7 0 0 1 7 0H160A7 7 0 0 1 167 7V47A7 7 0 0 1 160 54H7A7 7 0 0 1 0 47Z " stroke-width="0" stroke="#ffffff" fill="#6666ff" opacity="1"></path><g id="SvgjsG1013" transform="translate(16 8)"><g id="SvgjsG1014" transform="translate(0 0)"><text id="SvgjsText1015" font-family="微软雅黑" text-rendering="optimize-speed" fill="#ffffff" font-size="27" font-weight="normal" font-style="normal" text-anchor="start" x="0" y="29">特征工程</text></g><a id="SvgjsA1016" xlink:href="javascript:" target="_blank" transform="translate(111 7)" style="cursor: pointer;"><path id="SvgjsPath1017" d="M0 12A12 12 0 0 1 12 0A12 12 0 1 1 0 12 " fill="#2eb5e5"></path><path id="SvgjsPath1018" d="M8.85099983215332 11.979999542236328C8.637999534606934 11.979999542236328 8.425000190734863 11.898999214172363 8.262999534606934 11.73599910736084C6.740999698638916 10.21399974822998 6.740999698638916 7.73699951171875 8.262999534606934 6.214999675750732L11.335999488830566 3.1429996490478516C12.072999954223633 2.4060001373291016 13.053999900817871 2 14.095999717712402 2C15.138999938964844 2 16.119998931884766 2.4060001373291016 16.857999801635742 3.1440000534057617C18.3799991607666 4.664999961853027 18.3799991607666 7.14300012588501 16.857999801635742 8.664999961853027L15.45300006866455 10.069000244140625C15.128000259399414 10.394000053405762 14.60099983215332 10.394000053405762 14.276000022888184 10.069000244140625C13.951000213623047 9.744000434875488 13.951000213623047 9.217000007629395 14.276000022888184 8.892000198364258L15.680999755859375 7.48799991607666C16.55500030517578 6.614999771118164 16.55500030517578 5.193999767303467 15.680999755859375 4.321000099182129C15.256999969482422 3.8969998359680176 14.694999694824219 3.6649999618530273 14.097000122070312 3.6649999618530273C13.498000144958496 3.6649999618530273 12.935999870300293 3.8969998359680176 12.512999534606934 4.321000099182129L9.4399995803833 7.392000198364258C8.565999984741211 8.265999794006348 8.565999984741211 9.687000274658203 9.4399995803833 10.5600004196167C9.764999389648438 10.885000228881836 9.764999389648438 11.41200065612793 9.4399995803833 11.737000465393066C9.277000427246094 11.89799976348877 9.064000129699707 11.979000091552734 8.85099983215332 11.979999542236328L8.85099983215332 11.979999542236328ZM5.9019999504089355 18C4.859999656677246 18 3.878999948501587 17.5939998626709 3.1410000324249268 16.855998992919922C1.6190000772476196 15.333999633789062 1.6190000772476196 12.857000350952148 3.1410000324249268 11.335000038146973L4.545000076293945 9.930999755859375C4.869999885559082 9.605999946594238 5.397000312805176 9.605999946594238 5.7220001220703125 9.930999755859375C6.046999931335449 10.255000114440918 6.046999931335449 10.782999992370605 5.7220001220703125 11.107999801635742L4.317999839782715 12.51099967956543C3.444000005722046 13.385000228881836 3.444000005722046 14.805999755859375 4.317999839782715 15.678999900817871C4.741000175476074 16.101999282836914 5.303999900817871 16.334999084472656 5.9019999504089355 16.334999084472656C6.500999927520752 16.334999084472656 7.064000129699707 16.101999282836914 7.486000061035156 15.678999900817871L10.559000015258789 12.607000350952148C11.432999610900879 11.734000205993652 11.432999610900879 10.312999725341797 10.559000015258789 9.4399995803833C10.234000205993652 9.114999771118164 10.234000205993652 8.588000297546387 10.559000015258789 8.262999534606934C10.883999824523926 7.937999725341797 11.41100025177002 7.937999725341797 11.736000061035156 8.262999534606934C13.258000373840332 9.78499984741211 13.258000373840332 12.26200008392334 11.736000061035156 13.7839994430542L8.663000106811523 16.855998992919922C7.926000118255615 17.5939998626709 6.945000171661377 18 5.9019999504089355 18L5.9019999504089355 18Z " fill="#ffffff" transform="translate(2 2)"></path></a></g></g><g id="SvgjsG1022" transform="translate(-2909.3500061035156 -3369.599998474121)"><path id="SvgjsPath1023" d="M0 4A4 4 0 0 1 4 0H229A4 4 0 0 1 233 4V32A4 4 0 0 1 229 36H4A4 4 0 0 1 0 32Z " stroke-width="0" stroke="#6666ff" fill="none" opacity="0"></path><path id="SvgjsPath1024" d="M0 19L-16 19 " stroke="#6666ff" stroke-width="1"></path><g id="SvgjsG1025" transform="translate(-15 11)"><path id="SvgjsPath1026" d="M0 7A7 7 0 0 1 7 0A7 7 0 1 1 0 7Z " fill="#ffffff"></path><path id="SvgjsPath1027" d="M7 1A6 6 0 0 0 1 7A6 6 0 1 0 7 1ZM0 7A7 7 0 0 1 7 0A7 7 0 1 1 0 7ZM3 6H11V8H3V5Z " fill="#7c8084"></path></g><g id="SvgjsG1028" transform="translate(16 8)"><g id="SvgjsG1029" transform="translate(0 0)"><text id="SvgjsText1030" font-family="微软雅黑" text-rendering="optimize-speed" fill="#6666ff" font-size="14" font-weight="normal" font-style="normal" text-anchor="start" x="0" y="15">Feature Construction 特征构建</text></g></g></g><g id="SvgjsG1034" transform="translate(-2727.6343994140625 -3396.900001525879)"><path id="SvgjsPath1035" d="M0 4A4 4 0 0 1 4 0H250A4 4 0 0 1 254 4V20A4 4 0 0 1 250 24H4A4 4 0 0 1 0 20Z " stroke-width="0" stroke="#6666ff" fill="none" opacity="0"></path><g id="SvgjsG1036" transform="translate(10 3)"><g id="SvgjsG1037" transform="translate(0 0)"><text id="SvgjsText1038" font-family="微软雅黑" text-rendering="optimize-speed" fill="#6666ff" font-size="13" font-weight="normal" font-style="normal" text-anchor="start" x="0" y="14">描述：从原始数据中人工的构建新的特征</text></g></g></g><g id="SvgjsG1039" transform="translate(-2727.6343994140625 -3365.3999938964844)"><path id="SvgjsPath1040" d="M0 4A4 4 0 0 1 4 0H42A4 4 0 0 1 46 4V20A4 4 0 0 1 42 24H4A4 4 0 0 1 0 20Z " stroke-width="0" stroke="#6666ff" fill="none" opacity="0"></path><path id="SvgjsPath1041" d="M0 13L-16 13 " stroke="#6666ff" stroke-width="1"></path><g id="SvgjsG1042" transform="translate(-15 5)"><path id="SvgjsPath1043" d="M0 7A7 7 0 0 1 7 0A7 7 0 1 1 0 7Z " fill="#ffffff"></path><path id="SvgjsPath1044" d="M7 1A6 6 0 0 0 1 7A6 6 0 1 0 7 1ZM0 7A7 7 0 0 1 7 0A7 7 0 1 1 0 7ZM3 6H11V8H3V5Z " fill="#7c8084"></path></g><g id="SvgjsG1045" transform="translate(10 3)"><g id="SvgjsG1046" transform="translate(0 0)"><text id="SvgjsText1047" font-family="微软雅黑" text-rendering="optimize-speed" fill="#6666ff" font-size="13" font-weight="normal" font-style="normal" text-anchor="start" x="0" y="14">方法</text></g></g></g><g id="SvgjsG1050" transform="translate(-2676.5343627929688 -3375.900001525879)"><path id="SvgjsPath1051" d="M0 4A4 4 0 0 1 4 0H68A4 4 0 0 1 72 4V20A4 4 0 0 1 68 24H4A4 4 0 0 1 0 20Z " stroke-width="0" stroke="#6666ff" fill="none" opacity="0"></path><g id="SvgjsG1052" transform="translate(10 3)"><g id="SvgjsG1053" transform="translate(0 0)"><text id="SvgjsText1054" font-family="微软雅黑" text-rendering="optimize-speed" fill="#6666ff" font-size="13" font-weight="normal" font-style="normal" text-anchor="start" x="0" y="14">组合属性</text></g></g></g><g id="SvgjsG1055" transform="translate(-2676.5343627929688 -3354.8999938964844)"><path id="SvgjsPath1056" d="M0 4A4 4 0 0 1 4 0H68A4 4 0 0 1 72 4V20A4 4 0 0 1 68 24H4A4 4 0 0 1 0 20Z " stroke-width="0" stroke="#6666ff" fill="none" opacity="0"></path><path id="SvgjsPath1057" d="M0 13L-16 13 " stroke="#6666ff" stroke-width="1"></path><g id="SvgjsG1058" transform="translate(-15 5)"><path id="SvgjsPath1059" d="M0 7A7 7 0 0 1 7 0A7 7 0 1 1 0 7Z " fill="#ffffff"></path><path id="SvgjsPath1060" d="M7 1A6 6 0 0 0 1 7A6 6 0 1 0 7 1ZM0 7A7 7 0 0 1 7 0A7 7 0 1 1 0 7ZM3 6H11V8H3V5Z " fill="#7c8084"></path></g><g id="SvgjsG1061" transform="translate(10 3)"><g id="SvgjsG1062" transform="translate(0 0)"><text id="SvgjsText1063" font-family="微软雅黑" text-rendering="optimize-speed" fill="#6666ff" font-size="13" font-weight="normal" font-style="normal" text-anchor="start" x="0" y="14">切分属性</text></g></g></g><g id="SvgjsG1065" transform="translate(-2607.234375 -3354.8999938964844)"><path id="SvgjsPath1066" d="M0 4A4 4 0 0 1 4 0H471A4 4 0 0 1 475 4V20A4 4 0 0 1 471 24H4A4 4 0 0 1 0 20Z " stroke-width="0" stroke="#6666ff" fill="none" opacity="0"></path><g id="SvgjsG1067" transform="translate(10 3)"><g id="SvgjsG1068" transform="translate(0 0)"><text id="SvgjsText1069" font-family="微软雅黑" text-rendering="optimize-speed" fill="#6666ff" font-size="13" font-weight="normal" font-style="normal" text-anchor="start" x="0" y="14">如将数据中的日期字段按照季度和周期或者一天的上午、下午和晚上去构建特征</text></g></g></g><g id="SvgjsG1070" transform="translate(-2727.6343994140625 -3333.8999938964844)"><path id="SvgjsPath1071" d="M0 4A4 4 0 0 1 4 0H159A4 4 0 0 1 163 4V20A4 4 0 0 1 159 24H4A4 4 0 0 1 0 20Z " stroke-width="0" stroke="#6666ff" fill="none" opacity="0"></path><g id="SvgjsG1072" transform="translate(10 3)"><g id="SvgjsG1073" transform="translate(0 0)"><text id="SvgjsText1074" font-family="微软雅黑" text-rendering="optimize-speed" fill="#6666ff" font-size="13" font-weight="normal" font-style="normal" text-anchor="start" x="0" y="14">对数据敏感、分析能力强</text></g></g></g><g id="SvgjsG1075" transform="translate(-2909.3500061035156 -3243.6000061035156)"><path id="SvgjsPath1076" d="M0 4A4 4 0 0 1 4 0H209A4 4 0 0 1 213 4V32A4 4 0 0 1 209 36H4A4 4 0 0 1 0 32Z " stroke-width="0" stroke="#6666ff" fill="none" opacity="0"></path><path id="SvgjsPath1077" d="M0 19L-16 19 " stroke="#6666ff" stroke-width="1"></path><g id="SvgjsG1078" transform="translate(-15 11)"><path id="SvgjsPath1079" d="M0 7A7 7 0 0 1 7 0A7 7 0 1 1 0 7Z " fill="#ffffff"></path><path id="SvgjsPath1080" d="M7 1A6 6 0 0 0 1 7A6 6 0 1 0 7 1ZM0 7A7 7 0 0 1 7 0A7 7 0 1 1 0 7ZM3 6H11V8H3V5Z " fill="#7c8084"></path></g><g id="SvgjsG1081" transform="translate(16 8)"><g id="SvgjsG1082" transform="translate(0 0)"><text id="SvgjsText1083" font-family="微软雅黑" text-rendering="optimize-speed" fill="#6666ff" font-size="14" font-weight="normal" font-style="normal" text-anchor="start" x="0" y="15">Feature Extraction 特征提取</text></g></g></g><g id="SvgjsG1087" transform="translate(-2741.2625122070312 -3302.3999938964844)"><path id="SvgjsPath1088" d="M0 4A4 4 0 0 1 4 0H42A4 4 0 0 1 46 4V20A4 4 0 0 1 42 24H4A4 4 0 0 1 0 20Z " stroke-width="0" stroke="#6666ff" fill="none" opacity="0"></path><path id="SvgjsPath1089" d="M0 13L-16 13 " stroke="#6666ff" stroke-width="1"></path><g id="SvgjsG1090" transform="translate(-15 5)"><path id="SvgjsPath1091" d="M0 7A7 7 0 0 1 7 0A7 7 0 1 1 0 7Z " fill="#ffffff"></path><path id="SvgjsPath1092" d="M7 1A6 6 0 0 0 1 7A6 6 0 1 0 7 1ZM0 7A7 7 0 0 1 7 0A7 7 0 1 1 0 7ZM3 6H11V8H3V5Z " fill="#7c8084"></path></g><g id="SvgjsG1093" transform="translate(10 3)"><g id="SvgjsG1094" transform="translate(0 0)"><text id="SvgjsText1095" font-family="微软雅黑" text-rendering="optimize-speed" fill="#6666ff" font-size="13" font-weight="normal" font-style="normal" text-anchor="start" x="0" y="14">描述</text></g></g></g><g id="SvgjsG1098" transform="translate(-2690.1624755859375 -3312.8999938964844)"><path id="SvgjsPath1099" d="M0 4A4 4 0 0 1 4 0H604A4 4 0 0 1 608 4V20A4 4 0 0 1 604 24H4A4 4 0 0 1 0 20Z " stroke-width="0" stroke="#6666ff" fill="none" opacity="0"></path><g id="SvgjsG1100" transform="translate(10 3)"><g id="SvgjsG1101" transform="translate(0 0)"><text id="SvgjsText1102" font-family="微软雅黑" text-rendering="optimize-speed" fill="#6666ff" font-size="13" font-weight="normal" font-style="normal" text-anchor="start" x="0" y="14">将原始特征转换成一组具有物理意义或者统计意义特征的过程,比如减少原始数据中某个特征的取值个数</text></g></g></g><g id="SvgjsG1103" transform="translate(-2690.1624755859375 -3291.8999938964844)"><path id="SvgjsPath1104" d="M0 4A4 4 0 0 1 4 0H965A4 4 0 0 1 969 4V20A4 4 0 0 1 965 24H4A4 4 0 0 1 0 20Z " stroke-width="0" stroke="#6666ff" fill="none" opacity="0"></path><g id="SvgjsG1105" transform="translate(10 3)"><g id="SvgjsG1106" transform="translate(0 0)"><text id="SvgjsText1107" font-family="微软雅黑" text-rendering="optimize-speed" fill="#6666ff" font-size="13" font-weight="normal" font-style="normal" text-anchor="start" x="0" y="14">Feature extraction is a process of automatically reducing the dimensionality of these types of observations into a much smaller set that can be modelled.</text></g></g></g><g id="SvgjsG1108" transform="translate(-2741.2625122070312 -3260.3999938964844)"><path id="SvgjsPath1109" d="M0 4A4 4 0 0 1 4 0H42A4 4 0 0 1 46 4V20A4 4 0 0 1 42 24H4A4 4 0 0 1 0 20Z " stroke-width="0" stroke="#6666ff" fill="none" opacity="0"></path><path id="SvgjsPath1110" d="M0 13L-16 13 " stroke="#6666ff" stroke-width="1"></path><g id="SvgjsG1111" transform="translate(-15 5)"><path id="SvgjsPath1112" d="M0 7A7 7 0 0 1 7 0A7 7 0 1 1 0 7Z " fill="#ffffff"></path><path id="SvgjsPath1113" d="M7 1A6 6 0 0 0 1 7A6 6 0 1 0 7 1ZM0 7A7 7 0 0 1 7 0A7 7 0 1 1 0 7ZM3 6H11V8H3V5Z " fill="#7c8084"></path></g><g id="SvgjsG1114" transform="translate(10 3)"><g id="SvgjsG1115" transform="translate(0 0)"><text id="SvgjsText1116" font-family="微软雅黑" text-rendering="optimize-speed" fill="#6666ff" font-size="13" font-weight="normal" font-style="normal" text-anchor="start" x="0" y="14">目的</text></g></g></g><g id="SvgjsG1119" transform="translate(-2690.1624755859375 -3270.8999938964844)"><path id="SvgjsPath1120" d="M0 4A4 4 0 0 1 4 0H1395A4 4 0 0 1 1399 4V20A4 4 0 0 1 1395 24H4A4 4 0 0 1 0 20Z " stroke-width="0" stroke="#6666ff" fill="none" opacity="0"></path><g id="SvgjsG1121" transform="translate(10 3)"><g id="SvgjsG1122" transform="translate(0 0)"><text id="SvgjsText1123" font-family="微软雅黑" text-rendering="optimize-speed" fill="#6666ff" font-size="13" font-weight="normal" font-style="normal" text-anchor="start" x="0" y="14">(1)Signal representation(信号表示): The goal of the feature extraction mapping is to represent the samples  accurately in a  low-dimensional space.即特征抽取后的特征要能够精确地表示样本信息，使得信息丢失很小（对应于PCA)</text></g></g></g><g id="SvgjsG1124" transform="translate(-2690.1624755859375 -3249.8999938964844)"><path id="SvgjsPath1125" d="M0 4A4 4 0 0 1 4 0H1722A4 4 0 0 1 1726 4V20A4 4 0 0 1 1722 24H4A4 4 0 0 1 0 20Z " stroke-width="0" stroke="#6666ff" fill="none" opacity="0"></path><g id="SvgjsG1126" transform="translate(10 3)"><g id="SvgjsG1127" transform="translate(0 0)"><text id="SvgjsText1128" font-family="微软雅黑" text-rendering="optimize-speed" fill="#6666ff" font-size="13" font-weight="normal" font-style="normal" text-anchor="start" x="0" y="14">(2)Signal classification（信号分类): The goal of the feature extraction mapping is toenhance the class-discriminatory  information in a low-dimensional space.  即特征抽取后的特征，要使得分类后的准确率很高，不能比原来特征进行分类的准确率低。对与线性来说，对应的方法是LDA  .</text></g></g></g><g id="SvgjsG1129" transform="translate(-2741.2625122070312 -3197.3999938964844)"><path id="SvgjsPath1130" d="M0 4A4 4 0 0 1 4 0H42A4 4 0 0 1 46 4V20A4 4 0 0 1 42 24H4A4 4 0 0 1 0 20Z " stroke-width="0" stroke="#6666ff" fill="none" opacity="0"></path><path id="SvgjsPath1131" d="M0 13L-16 13 " stroke="#6666ff" stroke-width="1"></path><g id="SvgjsG1132" transform="translate(-15 5)"><path id="SvgjsPath1133" d="M0 7A7 7 0 0 1 7 0A7 7 0 1 1 0 7Z " fill="#ffffff"></path><path id="SvgjsPath1134" d="M7 1A6 6 0 0 0 1 7A6 6 0 1 0 7 1ZM0 7A7 7 0 0 1 7 0A7 7 0 1 1 0 7ZM3 6H11V8H3V5Z " fill="#7c8084"></path></g><g id="SvgjsG1135" transform="translate(10 3)"><g id="SvgjsG1136" transform="translate(0 0)"><text id="SvgjsText1137" font-family="微软雅黑" text-rendering="optimize-speed" fill="#6666ff" font-size="13" font-weight="normal" font-style="normal" text-anchor="start" x="0" y="14">方法</text></g></g></g><g id="SvgjsG1142" transform="translate(-2690.1624755859375 -3228.8999938964844)"><path id="SvgjsPath1143" d="M0 4A4 4 0 0 1 4 0H313A4 4 0 0 1 317 4V20A4 4 0 0 1 313 24H4A4 4 0 0 1 0 20Z " stroke-width="0" stroke="#6666ff" fill="none" opacity="0"></path><g id="SvgjsG1144" transform="translate(10 3)"><g id="SvgjsG1145" transform="translate(0 0)"><text id="SvgjsText1146" font-family="微软雅黑" text-rendering="optimize-speed" fill="#6666ff" font-size="13" font-weight="normal" font-style="normal" text-anchor="middle" x="148.5" y="14">PCA (Principal component analysis，主成分分析)</text></g></g></g><g id="SvgjsG1147" transform="translate(-2690.1624755859375 -3207.8999938964844)"><path id="SvgjsPath1148" d="M0 4A4 4 0 0 1 4 0H349A4 4 0 0 1 353 4V20A4 4 0 0 1 349 24H4A4 4 0 0 1 0 20Z " stroke-width="0" stroke="#6666ff" fill="none" opacity="0"></path><g id="SvgjsG1149" transform="translate(10 3)"><g id="SvgjsG1150" transform="translate(0 0)"><text id="SvgjsText1151" font-family="微软雅黑" text-rendering="optimize-speed" fill="#6666ff" font-size="13" font-weight="normal" font-style="normal" text-anchor="start" x="0" y="14">ICA (Independent component analysis，独立成分分析)</text></g></g></g><g id="SvgjsG1152" transform="translate(-2690.1624755859375 -3186.8999938964844)"><path id="SvgjsPath1153" d="M0 4A4 4 0 0 1 4 0H336A4 4 0 0 1 340 4V20A4 4 0 0 1 336 24H4A4 4 0 0 1 0 20Z " stroke-width="0" stroke="#6666ff" fill="none" opacity="0"></path><g id="SvgjsG1154" transform="translate(10 3)"><g id="SvgjsG1155" transform="translate(0 0)"><text id="SvgjsText1156" font-family="微软雅黑" text-rendering="optimize-speed" fill="#6666ff" font-size="13" font-weight="normal" font-style="normal" text-anchor="start" x="0" y="14">LDA （Linear Discriminant Analysis，线性判别分析）</text></g></g></g><g id="SvgjsG1157" transform="translate(-2690.1624755859375 -3165.8999938964844)"><path id="SvgjsPath1158" d="M0 4A4 4 0 0 1 4 0H161A4 4 0 0 1 165 4V20A4 4 0 0 1 161 24H4A4 4 0 0 1 0 20Z " stroke-width="0" stroke="#6666ff" fill="none" opacity="0"></path><g id="SvgjsG1159" transform="translate(10 3)"><g id="SvgjsG1160" transform="translate(0 0)"><text id="SvgjsText1161" font-family="微软雅黑" text-rendering="optimize-speed" fill="#6666ff" font-size="13" font-weight="normal" font-style="normal" text-anchor="start" x="0" y="14">其它：图像数据——SIFT</text></g></g></g><g id="SvgjsG1162" transform="translate(-2909.3500061035156 -2886.5999755859375)"><path id="SvgjsPath1163" d="M0 4A4 4 0 0 1 4 0H204A4 4 0 0 1 208 4V32A4 4 0 0 1 204 36H4A4 4 0 0 1 0 32Z " stroke-width="0" stroke="#6666ff" fill="none" opacity="0"></path><path id="SvgjsPath1164" d="M0 19L-16 19 " stroke="#6666ff" stroke-width="1"></path><g id="SvgjsG1165" transform="translate(-15 11)"><path id="SvgjsPath1166" d="M0 7A7 7 0 0 1 7 0A7 7 0 1 1 0 7Z " fill="#ffffff"></path><path id="SvgjsPath1167" d="M7 1A6 6 0 0 0 1 7A6 6 0 1 0 7 1ZM0 7A7 7 0 0 1 7 0A7 7 0 1 1 0 7ZM3 6H11V8H3V5Z " fill="#7c8084"></path></g><g id="SvgjsG1168" transform="translate(16 8)"><g id="SvgjsG1169" transform="translate(0 0)"><text id="SvgjsText1170" font-family="微软雅黑" text-rendering="optimize-speed" fill="#6666ff" font-size="14" font-weight="normal" font-style="normal" text-anchor="start" x="0" y="15">Feature Selection 特征选择</text></g></g></g><g id="SvgjsG1174" transform="translate(-2745.046875 -3144.8999938964844)"><path id="SvgjsPath1175" d="M0 4A4 4 0 0 1 4 0H458A4 4 0 0 1 462 4V20A4 4 0 0 1 458 24H4A4 4 0 0 1 0 20Z " stroke-width="0" stroke="#6666ff" fill="none" opacity="0"></path><g id="SvgjsG1176" transform="translate(10 3)"><g id="SvgjsG1177" transform="translate(0 0)"><text id="SvgjsText1178" font-family="微软雅黑" text-rendering="optimize-speed" fill="#6666ff" font-size="13" font-weight="normal" font-style="normal" text-anchor="start" x="0" y="14">描述：从特征集合中挑选一组最具统计意义的特征子集，从而达到降维的效果</text></g></g></g><g id="SvgjsG1179" transform="translate(-2745.046875 -2882.4000244140625)"><path id="SvgjsPath1180" d="M0 4A4 4 0 0 1 4 0H94A4 4 0 0 1 98 4V20A4 4 0 0 1 94 24H4A4 4 0 0 1 0 20Z " stroke-width="0" stroke="#6666ff" fill="none" opacity="0"></path><path id="SvgjsPath1181" d="M0 13L-16 13 " stroke="#6666ff" stroke-width="1"></path><g id="SvgjsG1182" transform="translate(-15 5)"><path id="SvgjsPath1183" d="M0 7A7 7 0 0 1 7 0A7 7 0 1 1 0 7Z " fill="#ffffff"></path><path id="SvgjsPath1184" d="M7 1A6 6 0 0 0 1 7A6 6 0 1 0 7 1ZM0 7A7 7 0 0 1 7 0A7 7 0 1 1 0 7ZM3 6H11V8H3V5Z " fill="#7c8084"></path></g><g id="SvgjsG1185" transform="translate(10 3)"><g id="SvgjsG1186" transform="translate(0 0)"><text id="SvgjsText1187" font-family="微软雅黑" text-rendering="optimize-speed" fill="#6666ff" font-size="13" font-weight="normal" font-style="normal" text-anchor="start" x="0" y="14">特征子集生成</text></g></g></g><g id="SvgjsG1192" transform="translate(-2657.546875 -3123.8999938964844)"><path id="SvgjsPath1193" d="M0 4A4 4 0 0 1 4 0H211A4 4 0 0 1 215 4V20A4 4 0 0 1 211 24H4A4 4 0 0 1 0 20Z " stroke-width="0" stroke="#6666ff" fill="none" opacity="0"></path><g id="SvgjsG1194" transform="translate(10 3)"><g id="SvgjsG1195" transform="translate(0 0)"><text id="SvgjsText1196" font-family="微软雅黑" text-rendering="optimize-speed" fill="#6666ff" font-size="13" font-weight="normal" font-style="normal" text-anchor="start" x="0" y="14">功能：从特征集合中搜索特征子集</text></g></g></g><g id="SvgjsG1197" transform="translate(-2657.546875 -3029.3999938964844)"><path id="SvgjsPath1198" d="M0 4A4 4 0 0 1 4 0H216A4 4 0 0 1 220 4V20A4 4 0 0 1 216 24H4A4 4 0 0 1 0 20Z " stroke-width="0" stroke="#6666ff" fill="none" opacity="0"></path><path id="SvgjsPath1199" d="M0 13L-16 13 " stroke="#6666ff" stroke-width="1"></path><g id="SvgjsG1200" transform="translate(-15 5)"><path id="SvgjsPath1201" d="M0 7A7 7 0 0 1 7 0A7 7 0 1 1 0 7Z " fill="#ffffff"></path><path id="SvgjsPath1202" d="M7 1A6 6 0 0 0 1 7A6 6 0 1 0 7 1ZM0 7A7 7 0 0 1 7 0A7 7 0 1 1 0 7ZM3 6H11V8H3V5Z " fill="#7c8084"></path></g><g id="SvgjsG1203" transform="translate(10 3)"><g id="SvgjsG1204" transform="translate(0 0)"><text id="SvgjsText1205" font-family="微软雅黑" text-rendering="optimize-speed" fill="#6666ff" font-size="13" font-weight="normal" font-style="normal" text-anchor="start" x="0" y="14">Filter（筛选器，侧重于单个特征）</text></g></g></g><g id="SvgjsG1210" transform="translate(-2484.6359252929688 -3102.8999938964844)"><path id="SvgjsPath1211" d="M0 4A4 4 0 0 1 4 0H848A4 4 0 0 1 852 4V20A4 4 0 0 1 848 24H4A4 4 0 0 1 0 20Z " stroke-width="0" stroke="#6666ff" fill="none" opacity="0"></path><g id="SvgjsG1212" transform="translate(10 3)"><g id="SvgjsG1213" transform="translate(0 0)"><text id="SvgjsText1214" font-family="微软雅黑" text-rendering="optimize-speed" fill="#6666ff" font-size="13" font-weight="normal" font-style="normal" text-anchor="start" x="0" y="14">描述：自变量和目标变量的关联，通过分析特征子集内部的特点来衡量其好坏，然后选择排名靠前的（如top 10%），从而达到特征选择的目的。</text></g></g></g><g id="SvgjsG1215" transform="translate(-2484.6359252929688 -3039.8999938964844)"><path id="SvgjsPath1216" d="M0 4A4 4 0 0 1 4 0H68A4 4 0 0 1 72 4V20A4 4 0 0 1 68 24H4A4 4 0 0 1 0 20Z " stroke-width="0" stroke="#6666ff" fill="none" opacity="0"></path><path id="SvgjsPath1217" d="M0 13L-16 13 " stroke="#6666ff" stroke-width="1"></path><g id="SvgjsG1218" transform="translate(-15 5)"><path id="SvgjsPath1219" d="M0 7A7 7 0 0 1 7 0A7 7 0 1 1 0 7Z " fill="#ffffff"></path><path id="SvgjsPath1220" d="M7 1A6 6 0 0 0 1 7A6 6 0 1 0 7 1ZM0 7A7 7 0 0 1 7 0A7 7 0 1 1 0 7ZM3 6H11V8H3V5Z " fill="#7c8084"></path></g><g id="SvgjsG1221" transform="translate(10 3)"><g id="SvgjsG1222" transform="translate(0 0)"><text id="SvgjsText1223" font-family="微软雅黑" text-rendering="optimize-speed" fill="#6666ff" font-size="13" font-weight="normal" font-style="normal" text-anchor="start" x="0" y="14">评价函数</text></g></g></g><g id="SvgjsG1229" transform="translate(-2415.3359375 -3081.8999938964844)"><path id="SvgjsPath1230" d="M0 4A4 4 0 0 1 4 0H118A4 4 0 0 1 122 4V20A4 4 0 0 1 118 24H4A4 4 0 0 1 0 20Z " stroke-width="0" stroke="#6666ff" fill="none" opacity="0"></path><g id="SvgjsG1231" transform="translate(10 3)"><g id="SvgjsG1232" transform="translate(0 0)"><text id="SvgjsText1233" font-family="微软雅黑" text-rendering="optimize-speed" fill="#6666ff" font-size="13" font-weight="normal" font-style="normal" text-anchor="start" x="0" y="14">Pearson相关系数</text></g></g></g><g id="SvgjsG1234" transform="translate(-2415.3359375 -3060.8999938964844)"><path id="SvgjsPath1235" d="M0 4A4 4 0 0 1 4 0H132A4 4 0 0 1 136 4V20A4 4 0 0 1 132 24H4A4 4 0 0 1 0 20Z " stroke-width="0" stroke="#6666ff" fill="none" opacity="0"></path><g id="SvgjsG1236" transform="translate(10 3)"><g id="SvgjsG1237" transform="translate(0 0)"><text id="SvgjsText1238" font-family="微软雅黑" text-rendering="optimize-speed" fill="#6666ff" font-size="13" font-weight="normal" font-style="normal" text-anchor="start" x="0" y="14">Gini-index基尼指数</text></g></g></g><g id="SvgjsG1239" transform="translate(-2415.3359375 -3039.8999938964844)"><path id="SvgjsPath1240" d="M0 4A4 4 0 0 1 4 0H137A4 4 0 0 1 141 4V20A4 4 0 0 1 137 24H4A4 4 0 0 1 0 20Z " stroke-width="0" stroke="#6666ff" fill="none" opacity="0"></path><g id="SvgjsG1241" transform="translate(10 3)"><g id="SvgjsG1242" transform="translate(0 0)"><text id="SvgjsText1243" font-family="微软雅黑" text-rendering="optimize-speed" fill="#6666ff" font-size="13" font-weight="normal" font-style="normal" text-anchor="start" x="0" y="14">IG 信息增益、互信息</text></g></g></g><g id="SvgjsG1244" transform="translate(-2415.3359375 -3018.8999938964844)"><path id="SvgjsPath1245" d="M0 4A4 4 0 0 1 4 0H68A4 4 0 0 1 72 4V20A4 4 0 0 1 68 24H4A4 4 0 0 1 0 20Z " stroke-width="0" stroke="#6666ff" fill="none" opacity="0"></path><g id="SvgjsG1246" transform="translate(10 3)"><g id="SvgjsG1247" transform="translate(0 0)"><text id="SvgjsText1248" font-family="微软雅黑" text-rendering="optimize-speed" fill="#6666ff" font-size="13" font-weight="normal" font-style="normal" text-anchor="start" x="0" y="14">卡方检验</text></g></g></g><g id="SvgjsG1249" transform="translate(-2415.3359375 -2997.8999938964844)"><path id="SvgjsPath1250" d="M0 4A4 4 0 0 1 4 0H708A4 4 0 0 1 712 4V20A4 4 0 0 1 708 24H4A4 4 0 0 1 0 20Z " stroke-width="0" stroke="#6666ff" fill="none" opacity="0"></path><g id="SvgjsG1251" transform="translate(10 3)"><g id="SvgjsG1252" transform="translate(0 0)"><text id="SvgjsText1253" font-family="微软雅黑" text-rendering="optimize-speed" fill="#6666ff" font-size="13" font-weight="normal" font-style="normal" text-anchor="start" x="0" y="14">Distance Metrics 距离（相似性度量），常用的距离度量（相似性度量）包括欧氏距离、标准化欧氏距离、马氏距离等。</text></g></g></g><g id="SvgjsG1254" transform="translate(-2484.6359252929688 -2976.9000244140625)"><path id="SvgjsPath1255" d="M0 4A4 4 0 0 1 4 0H347A4 4 0 0 1 351 4V20A4 4 0 0 1 347 24H4A4 4 0 0 1 0 20Z " stroke-width="0" stroke="#6666ff" fill="none" opacity="0"></path><g id="SvgjsG1256" transform="translate(10 3)"><g id="SvgjsG1257" transform="translate(0 0)"><text id="SvgjsText1258" font-family="微软雅黑" text-rendering="optimize-speed" fill="#6666ff" font-size="13" font-weight="normal" font-style="normal" text-anchor="start" x="0" y="14">优点:计算时间上较高效,对于过拟合问题具有较高的鲁棒性</text></g></g></g><g id="SvgjsG1259" transform="translate(-2484.6359252929688 -2955.9000244140625)"><path id="SvgjsPath1260" d="M0 4A4 4 0 0 1 4 0H870A4 4 0 0 1 874 4V20A4 4 0 0 1 870 24H4A4 4 0 0 1 0 20Z " stroke-width="0" stroke="#6666ff" fill="none" opacity="0"></path><g id="SvgjsG1261" transform="translate(10 3)"><g id="SvgjsG1262" transform="translate(0 0)"><text id="SvgjsText1263" font-family="微软雅黑" text-rendering="optimize-speed" fill="#6666ff" font-size="13" font-weight="normal" font-style="normal" text-anchor="start" x="0" y="14">缺点:倾向于选择冗余的特征,因为他们不考虑特征之间的相关性,有可能某一个特征的分类能力很差，但是它和某些其它特征组合起来会得到不错的效果</text></g></g></g><g id="SvgjsG1264" transform="translate(-2657.546875 -2861.4000244140625)"><path id="SvgjsPath1265" d="M0 4A4 4 0 0 1 4 0H226A4 4 0 0 1 230 4V20A4 4 0 0 1 226 24H4A4 4 0 0 1 0 20Z " stroke-width="0" stroke="#6666ff" fill="none" opacity="0"></path><path id="SvgjsPath1266" d="M0 13L-16 13 " stroke="#6666ff" stroke-width="1"></path><g id="SvgjsG1267" transform="translate(-15 5)"><path id="SvgjsPath1268" d="M0 7A7 7 0 0 1 7 0A7 7 0 1 1 0 7Z " fill="#ffffff"></path><path id="SvgjsPath1269" d="M7 1A6 6 0 0 0 1 7A6 6 0 1 0 7 1ZM0 7A7 7 0 0 1 7 0A7 7 0 1 1 0 7ZM3 6H11V8H3V5Z " fill="#7c8084"></path></g><g id="SvgjsG1270" transform="translate(10 3)"><g id="SvgjsG1271" transform="translate(0 0)"><text id="SvgjsText1272" font-family="微软雅黑" text-rendering="optimize-speed" fill="#6666ff" font-size="13" font-weight="normal" font-style="normal" text-anchor="start" x="0" y="14">Wrapper（封装器，侧重特征子集）</text></g></g></g><g id="SvgjsG1278" transform="translate(-2477.4171752929688 -2934.9000244140625)"><path id="SvgjsPath1279" d="M0 4A4 4 0 0 1 4 0H864A4 4 0 0 1 868 4V20A4 4 0 0 1 864 24H4A4 4 0 0 1 0 20Z " stroke-width="0" stroke="#6666ff" fill="none" opacity="0"></path><g id="SvgjsG1280" transform="translate(10 3)"><g id="SvgjsG1281" transform="translate(0 0)"><text id="SvgjsText1282" font-family="微软雅黑" text-rendering="optimize-speed" fill="#6666ff" font-size="13" font-weight="normal" font-style="normal" text-anchor="start" x="0" y="14">描述：实质上是一个分类器，封装器用选取的特征子集对样本集进行分类，分类的精度作为衡量特征子集好坏的标准,经过比较选出最好的特征子集。</text></g></g></g><g id="SvgjsG1283" transform="translate(-2477.4171752929688 -2892.9000244140625)"><path id="SvgjsPath1284" d="M0 4A4 4 0 0 1 4 0H94A4 4 0 0 1 98 4V20A4 4 0 0 1 94 24H4A4 4 0 0 1 0 20Z " stroke-width="0" stroke="#6666ff" fill="none" opacity="0"></path><path id="SvgjsPath1285" d="M0 13L-16 13 " stroke="#6666ff" stroke-width="1"></path><g id="SvgjsG1286" transform="translate(-15 5)"><path id="SvgjsPath1287" d="M0 7A7 7 0 0 1 7 0A7 7 0 1 1 0 7Z " fill="#ffffff"></path><path id="SvgjsPath1288" d="M7 1A6 6 0 0 0 1 7A6 6 0 1 0 7 1ZM0 7A7 7 0 0 1 7 0A7 7 0 1 1 0 7ZM3 6H11V8H3V5Z " fill="#7c8084"></path></g><g id="SvgjsG1289" transform="translate(10 3)"><g id="SvgjsG1290" transform="translate(0 0)"><text id="SvgjsText1291" font-family="微软雅黑" text-rendering="optimize-speed" fill="#6666ff" font-size="13" font-weight="normal" font-style="normal" text-anchor="start" x="0" y="14">产生特征子集</text></g></g></g><g id="SvgjsG1295" transform="translate(-2389.9171752929688 -2913.9000244140625)"><path id="SvgjsPath1296" d="M0 4A4 4 0 0 1 4 0H207A4 4 0 0 1 211 4V20A4 4 0 0 1 207 24H4A4 4 0 0 1 0 20Z " stroke-width="0" stroke="#6666ff" fill="none" opacity="0"></path><path id="SvgjsPath1297" d="M0 13L-16 13 " stroke="#6666ff" stroke-width="1"></path><g id="SvgjsG1298" transform="translate(-15 5)"><path id="SvgjsPath1299" d="M0 7A7 7 0 0 1 7 0A7 7 0 1 1 0 7Z " fill="#ffffff"></path><path id="SvgjsPath1300" d="M7 1A6 6 0 0 0 1 7A6 6 0 1 0 7 1ZM0 7A7 7 0 0 1 7 0A7 7 0 1 1 0 7ZM3 6H11V8H3V5Z " fill="#7c8084"></path></g><g id="SvgjsG1301" transform="translate(10 3)"><g id="SvgjsG1302" transform="translate(0 0)"><text id="SvgjsText1303" font-family="微软雅黑" text-rendering="optimize-speed" fill="#6666ff" font-size="13" font-weight="normal" font-style="normal" text-anchor="start" x="0" y="14">Classifier error rate(错误分类率)</text></g></g></g><g id="SvgjsG1305" transform="translate(-2223.0218505859375 -2913.9000244140625)"><path id="SvgjsPath1306" d="M0 4A4 4 0 0 1 4 0H604A4 4 0 0 1 608 4V20A4 4 0 0 1 604 24H4A4 4 0 0 1 0 20Z " stroke-width="0" stroke="#6666ff" fill="none" opacity="0"></path><g id="SvgjsG1307" transform="translate(10 3)"><g id="SvgjsG1308" transform="translate(0 0)"><text id="SvgjsText1309" font-family="微软雅黑" text-rendering="optimize-speed" fill="#6666ff" font-size="13" font-weight="normal" font-style="normal" text-anchor="start" x="0" y="14">描述:使用特定的分类器，用给定的特征子集对样本集进行分类，用分类的精度来衡量特征子集的好坏。</text></g></g></g><g id="SvgjsG1310" transform="translate(-2389.9171752929688 -2892.9000244140625)"><path id="SvgjsPath1311" d="M0 4A4 4 0 0 1 4 0H186A4 4 0 0 1 190 4V20A4 4 0 0 1 186 24H4A4 4 0 0 1 0 20Z " stroke-width="0" stroke="#6666ff" fill="none" opacity="0"></path><path id="SvgjsPath1312" d="M0 13L-16 13 " stroke="#6666ff" stroke-width="1"></path><g id="SvgjsG1313" transform="translate(-15 5)"><path id="SvgjsPath1314" d="M0 7A7 7 0 0 1 7 0A7 7 0 1 1 0 7Z " fill="#ffffff"></path><path id="SvgjsPath1315" d="M7 1A6 6 0 0 0 1 7A6 6 0 1 0 7 1ZM0 7A7 7 0 0 1 7 0A7 7 0 1 1 0 7ZM3 6H11V8H3V5Z " fill="#7c8084"></path></g><g id="SvgjsG1316" transform="translate(10 3)"><g id="SvgjsG1317" transform="translate(0 0)"><text id="SvgjsText1318" font-family="微软雅黑" text-rendering="optimize-speed" fill="#6666ff" font-size="13" font-weight="normal" font-style="normal" text-anchor="start" x="0" y="14">forward search（前向搜索）</text></g></g></g><g id="SvgjsG1320" transform="translate(-2237.7437744140625 -2892.9000244140625)"><path id="SvgjsPath1321" d="M0 4A4 4 0 0 1 4 0H968A4 4 0 0 1 972 4V20A4 4 0 0 1 968 24H4A4 4 0 0 1 0 20Z " stroke-width="0" stroke="#6666ff" fill="none" opacity="0"></path><g id="SvgjsG1322" transform="translate(10 3)"><g id="SvgjsG1323" transform="translate(0 0)"><text id="SvgjsText1324" font-family="微软雅黑" text-rendering="optimize-speed" fill="#6666ff" font-size="13" font-weight="normal" font-style="normal" text-anchor="start" x="0" y="14">描述:初始时假设已选特征的集合为空集，算法采取贪心的方式逐步扩充该集合，直到该集合的特征数达到一个阈值，该阈值可以预先设定，也可以通过交叉验证获得。</text></g></g></g><g id="SvgjsG1325" transform="translate(-2389.9171752929688 -2871.9000244140625)"><path id="SvgjsPath1326" d="M0 4A4 4 0 0 1 4 0H198A4 4 0 0 1 202 4V20A4 4 0 0 1 198 24H4A4 4 0 0 1 0 20Z " stroke-width="0" stroke="#6666ff" fill="none" opacity="0"></path><path id="SvgjsPath1327" d="M0 13L-16 13 " stroke="#6666ff" stroke-width="1"></path><g id="SvgjsG1328" transform="translate(-15 5)"><path id="SvgjsPath1329" d="M0 7A7 7 0 0 1 7 0A7 7 0 1 1 0 7Z " fill="#ffffff"></path><path id="SvgjsPath1330" d="M7 1A6 6 0 0 0 1 7A6 6 0 1 0 7 1ZM0 7A7 7 0 0 1 7 0A7 7 0 1 1 0 7ZM3 6H11V8H3V5Z " fill="#7c8084"></path></g><g id="SvgjsG1331" transform="translate(10 3)"><g id="SvgjsG1332" transform="translate(0 0)"><text id="SvgjsText1333" font-family="微软雅黑" text-rendering="optimize-speed" fill="#6666ff" font-size="13" font-weight="normal" font-style="normal" text-anchor="start" x="0" y="14">backward search（后向搜索）</text></g></g></g><g id="SvgjsG1335" transform="translate(-2229.8031005859375 -2871.9000244140625)"><path id="SvgjsPath1336" d="M0 4A4 4 0 0 1 4 0H1313A4 4 0 0 1 1317 4V20A4 4 0 0 1 1313 24H4A4 4 0 0 1 0 20Z " stroke-width="0" stroke="#6666ff" fill="none" opacity="0"></path><g id="SvgjsG1337" transform="translate(10 3)"><g id="SvgjsG1338" transform="translate(0 0)"><text id="SvgjsText1339" font-family="微软雅黑" text-rendering="optimize-speed" fill="#6666ff" font-size="13" font-weight="normal" font-style="normal" text-anchor="start" x="0" y="14">描述: backward search初始时假设已选特征集合F为特征的全集，算法每次删除一个特征，直到F的特征数达到指定的阈值或者F被删空。该算法在选择删除哪一个特征时和forward search在选择一个特征加入F时是一样的做法。</text></g></g></g><g id="SvgjsG1340" transform="translate(-2477.4171752929688 -2850.9000244140625)"><path id="SvgjsPath1341" d="M0 4A4 4 0 0 1 4 0H68A4 4 0 0 1 72 4V20A4 4 0 0 1 68 24H4A4 4 0 0 1 0 20Z " stroke-width="0" stroke="#6666ff" fill="none" opacity="0"></path><path id="SvgjsPath1342" d="M0 13L-16 13 " stroke="#6666ff" stroke-width="1"></path><g id="SvgjsG1343" transform="translate(-15 5)"><path id="SvgjsPath1344" d="M0 7A7 7 0 0 1 7 0A7 7 0 1 1 0 7Z " fill="#ffffff"></path><path id="SvgjsPath1345" d="M7 1A6 6 0 0 0 1 7A6 6 0 1 0 7 1ZM0 7A7 7 0 0 1 7 0A7 7 0 1 1 0 7ZM3 6H11V8H3V5Z " fill="#7c8084"></path></g><g id="SvgjsG1346" transform="translate(10 3)"><g id="SvgjsG1347" transform="translate(0 0)"><text id="SvgjsText1348" font-family="微软雅黑" text-rendering="optimize-speed" fill="#6666ff" font-size="13" font-weight="normal" font-style="normal" text-anchor="start" x="0" y="14">评价方法</text></g></g></g><g id="SvgjsG1350" transform="translate(-2408.1171875 -2850.9000244140625)"><path id="SvgjsPath1351" d="M0 4A4 4 0 0 1 4 0H250A4 4 0 0 1 254 4V20A4 4 0 0 1 250 24H4A4 4 0 0 1 0 20Z " stroke-width="0" stroke="#6666ff" fill="none" opacity="0"></path><g id="SvgjsG1352" transform="translate(10 3)"><g id="SvgjsG1353" transform="translate(0 0)"><text id="SvgjsText1354" font-family="微软雅黑" text-rendering="optimize-speed" fill="#6666ff" font-size="13" font-weight="normal" font-style="normal" text-anchor="start" x="0" y="14">根据产生的子集，使用交叉验证进行试验</text></g></g></g><g id="SvgjsG1355" transform="translate(-2477.4171752929688 -2829.9000244140625)"><path id="SvgjsPath1356" d="M0 4A4 4 0 0 1 4 0H227A4 4 0 0 1 231 4V20A4 4 0 0 1 227 24H4A4 4 0 0 1 0 20Z " stroke-width="0" stroke="#6666ff" fill="none" opacity="0"></path><g id="SvgjsG1357" transform="translate(10 3)"><g id="SvgjsG1358" transform="translate(0 0)"><text id="SvgjsText1359" font-family="微软雅黑" text-rendering="optimize-speed" fill="#6666ff" font-size="13" font-weight="normal" font-style="normal" text-anchor="start" x="0" y="14">优点:考虑到特征与特征之间的关联性</text></g></g></g><g id="SvgjsG1360" transform="translate(-2477.4171752929688 -2798.4000244140625)"><path id="SvgjsPath1361" d="M0 4A4 4 0 0 1 4 0H42A4 4 0 0 1 46 4V20A4 4 0 0 1 42 24H4A4 4 0 0 1 0 20Z " stroke-width="0" stroke="#6666ff" fill="none" opacity="0"></path><path id="SvgjsPath1362" d="M0 13L-16 13 " stroke="#6666ff" stroke-width="1"></path><g id="SvgjsG1363" transform="translate(-15 5)"><path id="SvgjsPath1364" d="M0 7A7 7 0 0 1 7 0A7 7 0 1 1 0 7Z " fill="#ffffff"></path><path id="SvgjsPath1365" d="M7 1A6 6 0 0 0 1 7A6 6 0 1 0 7 1ZM0 7A7 7 0 0 1 7 0A7 7 0 1 1 0 7ZM3 6H11V8H3V5Z " fill="#7c8084"></path></g><g id="SvgjsG1366" transform="translate(10 3)"><g id="SvgjsG1367" transform="translate(0 0)"><text id="SvgjsText1368" font-family="微软雅黑" text-rendering="optimize-speed" fill="#6666ff" font-size="13" font-weight="normal" font-style="normal" text-anchor="start" x="0" y="14">缺点</text></g></g></g><g id="SvgjsG1371" transform="translate(-2426.3171997070312 -2808.9000244140625)"><path id="SvgjsPath1372" d="M0 4A4 4 0 0 1 4 0H196A4 4 0 0 1 200 4V20A4 4 0 0 1 196 24H4A4 4 0 0 1 0 20Z " stroke-width="0" stroke="#6666ff" fill="none" opacity="0"></path><g id="SvgjsG1373" transform="translate(10 3)"><g id="SvgjsG1374" transform="translate(0 0)"><text id="SvgjsText1375" font-family="微软雅黑" text-rendering="optimize-speed" fill="#6666ff" font-size="13" font-weight="normal" font-style="normal" text-anchor="start" x="0" y="14">1.当观测数据较少时容易过拟合</text></g></g></g><g id="SvgjsG1376" transform="translate(-2426.3171997070312 -2787.9000244140625)"><path id="SvgjsPath1377" d="M0 4A4 4 0 0 1 4 0H212A4 4 0 0 1 216 4V20A4 4 0 0 1 212 24H4A4 4 0 0 1 0 20Z " stroke-width="0" stroke="#6666ff" fill="none" opacity="0"></path><g id="SvgjsG1378" transform="translate(10 3)"><g id="SvgjsG1379" transform="translate(0 0)"><text id="SvgjsText1380" font-family="微软雅黑" text-rendering="optimize-speed" fill="#6666ff" font-size="13" font-weight="normal" font-style="normal" text-anchor="start" x="0" y="14">2.当特征数量较多时,计算时间增长</text></g></g></g><g id="SvgjsG1381" transform="translate(-2657.546875 -2703.9000244140625)"><path id="SvgjsPath1382" d="M0 4A4 4 0 0 1 4 0H136A4 4 0 0 1 140 4V20A4 4 0 0 1 136 24H4A4 4 0 0 1 0 20Z " stroke-width="0" stroke="#6666ff" fill="none" opacity="0"></path><path id="SvgjsPath1383" d="M0 13L-16 13 " stroke="#6666ff" stroke-width="1"></path><g id="SvgjsG1384" transform="translate(-15 5)"><path id="SvgjsPath1385" d="M0 7A7 7 0 0 1 7 0A7 7 0 1 1 0 7Z " fill="#ffffff"></path><path id="SvgjsPath1386" d="M7 1A6 6 0 0 0 1 7A6 6 0 1 0 7 1ZM0 7A7 7 0 0 1 7 0A7 7 0 1 1 0 7ZM3 6H11V8H3V5Z " fill="#7c8084"></path></g><g id="SvgjsG1387" transform="translate(10 3)"><g id="SvgjsG1388" transform="translate(0 0)"><text id="SvgjsText1389" font-family="微软雅黑" text-rendering="optimize-speed" fill="#6666ff" font-size="13" font-weight="normal" font-style="normal" text-anchor="start" x="0" y="14">Embeded(集成方法)</text></g></g></g><g id="SvgjsG1394" transform="translate(-2540.8546752929688 -2766.9000244140625)"><path id="SvgjsPath1395" d="M0 4A4 4 0 0 1 4 0H198A4 4 0 0 1 202 4V20A4 4 0 0 1 198 24H4A4 4 0 0 1 0 20Z " stroke-width="0" stroke="#6666ff" fill="none" opacity="0"></path><g id="SvgjsG1396" transform="translate(10 3)"><g id="SvgjsG1397" transform="translate(0 0)"><text id="SvgjsText1398" font-family="微软雅黑" text-rendering="optimize-speed" fill="#6666ff" font-size="13" font-weight="normal" font-style="normal" text-anchor="start" x="0" y="14">思路：学习器自身自动选择特征</text></g></g></g><g id="SvgjsG1399" transform="translate(-2540.8546752929688 -2714.4000244140625)"><path id="SvgjsPath1400" d="M0 4A4 4 0 0 1 4 0H42A4 4 0 0 1 46 4V20A4 4 0 0 1 42 24H4A4 4 0 0 1 0 20Z " stroke-width="0" stroke="#6666ff" fill="none" opacity="0"></path><path id="SvgjsPath1401" d="M0 13L-16 13 " stroke="#6666ff" stroke-width="1"></path><g id="SvgjsG1402" transform="translate(-15 5)"><path id="SvgjsPath1403" d="M0 7A7 7 0 0 1 7 0A7 7 0 1 1 0 7Z " fill="#ffffff"></path><path id="SvgjsPath1404" d="M7 1A6 6 0 0 0 1 7A6 6 0 1 0 7 1ZM0 7A7 7 0 0 1 7 0A7 7 0 1 1 0 7ZM3 6H11V8H3V5Z " fill="#7c8084"></path></g><g id="SvgjsG1405" transform="translate(10 3)"><g id="SvgjsG1406" transform="translate(0 0)"><text id="SvgjsText1407" font-family="微软雅黑" text-rendering="optimize-speed" fill="#6666ff" font-size="13" font-weight="normal" font-style="normal" text-anchor="start" x="0" y="14">方法</text></g></g></g><g id="SvgjsG1411" transform="translate(-2489.7546997070312 -2735.4000244140625)"><path id="SvgjsPath1412" d="M0 4A4 4 0 0 1 4 0H148A4 4 0 0 1 152 4V20A4 4 0 0 1 148 24H4A4 4 0 0 1 0 20Z " stroke-width="0" stroke="#6666ff" fill="none" opacity="0"></path><path id="SvgjsPath1413" d="M0 13L-16 13 " stroke="#6666ff" stroke-width="1"></path><g id="SvgjsG1414" transform="translate(-15 5)"><path id="SvgjsPath1415" d="M0 7A7 7 0 0 1 7 0A7 7 0 1 1 0 7Z " fill="#ffffff"></path><path id="SvgjsPath1416" d="M7 1A6 6 0 0 0 1 7A6 6 0 1 0 7 1ZM0 7A7 7 0 0 1 7 0A7 7 0 1 1 0 7ZM3 6H11V8H3V5Z " fill="#7c8084"></path></g><g id="SvgjsG1417" transform="translate(10 3)"><g id="SvgjsG1418" transform="translate(0 0)"><text id="SvgjsText1419" font-family="微软雅黑" text-rendering="optimize-speed" fill="#6666ff" font-size="13" font-weight="normal" font-style="normal" text-anchor="start" x="0" y="14">Regularization 正则化</text></g></g></g><g id="SvgjsG1422" transform="translate(-2364.2687377929688 -2745.9000244140625)"><path id="SvgjsPath1423" d="M0 4A4 4 0 0 1 4 0H93A4 4 0 0 1 97 4V20A4 4 0 0 1 93 24H4A4 4 0 0 1 0 20Z " stroke-width="0" stroke="#6666ff" fill="none" opacity="0"></path><g id="SvgjsG1424" transform="translate(10 3)"><g id="SvgjsG1425" transform="translate(0 0)"><text id="SvgjsText1426" font-family="微软雅黑" text-rendering="optimize-speed" fill="#6666ff" font-size="13" font-weight="normal" font-style="normal" text-anchor="start" x="0" y="14">L1——Lasso</text></g></g></g><g id="SvgjsG1427" transform="translate(-2364.2687377929688 -2724.9000244140625)"><path id="SvgjsPath1428" d="M0 4A4 4 0 0 1 4 0H94A4 4 0 0 1 98 4V20A4 4 0 0 1 94 24H4A4 4 0 0 1 0 20Z " stroke-width="0" stroke="#6666ff" fill="none" opacity="0"></path><g id="SvgjsG1429" transform="translate(10 3)"><g id="SvgjsG1430" transform="translate(0 0)"><text id="SvgjsText1431" font-family="微软雅黑" text-rendering="optimize-speed" fill="#6666ff" font-size="13" font-weight="normal" font-style="normal" text-anchor="start" x="0" y="14">L2——Ridge</text></g></g></g><g id="SvgjsG1432" transform="translate(-2489.7546997070312 -2703.9000244140625)"><path id="SvgjsPath1433" d="M0 4A4 4 0 0 1 4 0H173A4 4 0 0 1 177 4V20A4 4 0 0 1 173 24H4A4 4 0 0 1 0 20Z " stroke-width="0" stroke="#6666ff" fill="none" opacity="0"></path><path id="SvgjsPath1434" d="M0 13L-16 13 " stroke="#6666ff" stroke-width="1"></path><g id="SvgjsG1435" transform="translate(-15 5)"><path id="SvgjsPath1436" d="M0 7A7 7 0 0 1 7 0A7 7 0 1 1 0 7Z " fill="#ffffff"></path><path id="SvgjsPath1437" d="M7 1A6 6 0 0 0 1 7A6 6 0 1 0 7 1ZM0 7A7 7 0 0 1 7 0A7 7 0 1 1 0 7ZM3 6H11V8H3V5Z " fill="#7c8084"></path></g><g id="SvgjsG1438" transform="translate(10 3)"><g id="SvgjsG1439" transform="translate(0 0)"><text id="SvgjsText1440" font-family="微软雅黑" text-rendering="optimize-speed" fill="#6666ff" font-size="13" font-weight="normal" font-style="normal" text-anchor="start" x="0" y="14">决策树算法:ID3,C4.5,CART</text></g></g></g><g id="SvgjsG1442" transform="translate(-2347.2390747070312 -2703.9000244140625)"><path id="SvgjsPath1443" d="M0 4A4 4 0 0 1 4 0H1349A4 4 0 0 1 1353 4V20A4 4 0 0 1 1349 24H4A4 4 0 0 1 0 20Z " stroke-width="0" stroke="#6666ff" fill="none" opacity="0"></path><g id="SvgjsG1444" transform="translate(10 3)"><g id="SvgjsG1445" transform="translate(0 0)"><text id="SvgjsText1446" font-family="微软雅黑" text-rendering="optimize-speed" fill="#6666ff" font-size="13" font-weight="normal" font-style="normal" text-anchor="start" x="0" y="14">描述:决策树算法在树增长过程的每个递归步都必须选择一个特征，将样本集划分成较小的子集，选择特征的依据通常是划分后子节点的纯度，划分后子节点越纯，则说明划分效果越好，可见决策树生成的过程也就是特征选择的过程。 </text></g></g></g><g id="SvgjsG1447" transform="translate(-2489.7546997070312 -2682.9000244140625)"><path id="SvgjsPath1448" d="M0 4A4 4 0 0 1 4 0H68A4 4 0 0 1 72 4V20A4 4 0 0 1 68 24H4A4 4 0 0 1 0 20Z " stroke-width="0" stroke="#6666ff" fill="none" opacity="0"></path><g id="SvgjsG1449" transform="translate(10 3)"><g id="SvgjsG1450" transform="translate(0 0)"><text id="SvgjsText1451" font-family="微软雅黑" text-rendering="optimize-speed" fill="#6666ff" font-size="13" font-weight="normal" font-style="normal" text-anchor="start" x="0" y="14">深度学习</text></g></g></g><g id="SvgjsG1452" transform="translate(-2540.8546752929688 -2661.9000244140625)"><path id="SvgjsPath1453" d="M0 4A4 4 0 0 1 4 0H201A4 4 0 0 1 205 4V20A4 4 0 0 1 201 24H4A4 4 0 0 1 0 20Z " stroke-width="0" stroke="#6666ff" fill="none" opacity="0"></path><g id="SvgjsG1454" transform="translate(10 3)"><g id="SvgjsG1455" transform="translate(0 0)"><text id="SvgjsText1456" font-family="微软雅黑" text-rendering="optimize-speed" fill="#6666ff" font-size="13" font-weight="normal" font-style="normal" text-anchor="start" x="0" y="14">优点:集合了前面两种方法的优点</text></g></g></g><g id="SvgjsG1457" transform="translate(-2540.8546752929688 -2640.9000244140625)"><path id="SvgjsPath1458" d="M0 4A4 4 0 0 1 4 0H214A4 4 0 0 1 218 4V20A4 4 0 0 1 214 24H4A4 4 0 0 1 0 20Z " stroke-width="0" stroke="#6666ff" fill="none" opacity="0"></path><g id="SvgjsG1459" transform="translate(10 3)"><g id="SvgjsG1460" transform="translate(0 0)"><text id="SvgjsText1461" font-family="微软雅黑" text-rendering="optimize-speed" fill="#6666ff" font-size="13" font-weight="normal" font-style="normal" text-anchor="start" x="0" y="14">缺点:必须事先知道什么是好的选择</text></g></g></g><g id="SvgjsG1462" transform="translate(-2745.046875 -2619.9000244140625)"><path id="SvgjsPath1463" d="M0 4A4 4 0 0 1 4 0H68A4 4 0 0 1 72 4V20A4 4 0 0 1 68 24H4A4 4 0 0 1 0 20Z " stroke-width="0" stroke="#6666ff" fill="none" opacity="0"></path><path id="SvgjsPath1464" d="M0 13L-16 13 " stroke="#6666ff" stroke-width="1"></path><g id="SvgjsG1465" transform="translate(-15 5)"><path id="SvgjsPath1466" d="M0 7A7 7 0 0 1 7 0A7 7 0 1 1 0 7Z " fill="#ffffff"></path><path id="SvgjsPath1467" d="M7 1A6 6 0 0 0 1 7A6 6 0 1 0 7 1ZM0 7A7 7 0 0 1 7 0A7 7 0 1 1 0 7ZM3 6H11V8H3V5Z " fill="#7c8084"></path></g><g id="SvgjsG1468" transform="translate(10 3)"><g id="SvgjsG1469" transform="translate(0 0)"><text id="SvgjsText1470" font-family="微软雅黑" text-rendering="optimize-speed" fill="#6666ff" font-size="13" font-weight="normal" font-style="normal" text-anchor="start" x="0" y="14">特征验证</text></g></g></g><g id="SvgjsG1472" transform="translate(-2675.7468872070312 -2619.9000244140625)"><path id="SvgjsPath1473" d="M0 4A4 4 0 0 1 4 0H331A4 4 0 0 1 335 4V20A4 4 0 0 1 331 24H4A4 4 0 0 1 0 20Z " stroke-width="0" stroke="#6666ff" fill="none" opacity="0"></path><g id="SvgjsG1474" transform="translate(10 3)"><g id="SvgjsG1475" transform="translate(0 0)"><text id="SvgjsText1476" font-family="微软雅黑" text-rendering="optimize-speed" fill="#6666ff" font-size="13" font-weight="normal" font-style="normal" text-anchor="start" x="0" y="14">功能:在验证数据集上验证选出来的特征子集的有效性。</text></g></g></g></g></g></svg>